<?xml version="1.0" encoding="utf-8"?><!-- Uploaded to: SVG Repo, www.svgrepo.com, Generator: SVG Repo Mixer Tools -->
<svg
viewBox="0 0 36 36" 
xmlns="http://www.w3.org/2000/svg">
    <g 
    style="transform-origin: 64.082px 40.66px;" 
    transform="matrix(1, 0, 0, 1, -46.082001, -22.66)">
        <circle 
        fill="#FFCC4D" 
        cx="64.082" 
        cy="40.66" 
        r="18" 
        style="stroke-width: 1;"/>
        <path 
        fill="#664500" 
        d="M 73.417 46.289 
        C 73.24 46.129 72.974 46.116 72.782 46.26 
        C 72.743 46.289 68.86 49.16 64.082 49.16 
        C 59.316 49.16 55.42 46.289 55.382 46.26 
        C 55.074 46.028 54.632 46.217 54.586 46.599 
        C 54.572 46.71 54.596 46.821 54.653 46.917 
        C 54.782 47.132 57.87 52.16 64.082 52.16 
        C 70.294 52.16 73.383 47.132 73.511 46.917 
        C 73.634 46.712 73.595 46.448 73.417 46.289 Z" 
        style="stroke-width: 1;"/>
        <path 
        fill="#65471B" 
        d="M 64.082 49.251 
        C 63.934 49.251 63.791 49.24 63.644 49.235 
        L 63.644 53.751 
        L 64.519 53.751 
        L 64.519 49.234 
        C 64.374 49.239 64.23 49.251 64.082 49.251 Z" 
        style="stroke-width: 1;"/>
        <path 
        fill="#FFF" 
        d="M 68.082 48.66 
        C 68.098 48.656 66.632 49.038 65.636 49.146 
        C 65.27 49.188 64.899 49.222 64.519 49.235 
        L 64.519 53.752 
        L 66.082 53.752 
        C 67.182 53.752 68.082 52.852 68.082 51.752 
        L 68.082 48.66 Z 
        M 60.082 48.66 
        C 60.066 48.656 61.532 49.038 62.528 49.146 
        C 62.894 49.188 63.265 49.222 63.645 49.235 
        L 63.645 53.752 
        L 62.082 53.752 
        C 60.982 53.752 60.082 52.852 60.082 51.752 
        L 60.082 48.66 Z" 
        style="stroke-width: 1;"/>
        <path 
        fill="#65471B" 
        d="M 73.417 46.289 
        C 73.24 46.129 72.974 46.116 72.782 46.26 
        C 72.752 46.282 70.523 47.928 67.371 48.73 
        C 66.928 48.843 65.507 49.16 64.085 49.161 
        C 62.661 49.161 61.236 48.843 60.793 48.73 
        C 57.641 47.928 55.412 46.282 55.382 46.26 
        C 55.072 46.031 54.63 46.225 54.588 46.608 
        C 54.576 46.715 54.599 46.823 54.653 46.917 
        C 54.75 47.079 56.538 49.984 60.082 51.398 
        L 60.082 49.569 
        C 60.066 49.565 61.532 49.947 62.528 50.055 
        C 62.894 50.097 63.265 50.131 63.645 50.144 
        C 63.791 50.149 63.934 50.16 64.082 50.16 
        C 64.23 50.16 64.373 50.149 64.52 50.144 
        C 64.9 50.131 65.271 50.098 65.637 50.055 
        C 66.633 49.947 68.099 49.565 68.083 49.569 
        L 68.083 51.398 
        C 71.627 49.984 73.415 47.079 73.512 46.917 
        C 73.635 46.711 73.595 46.448 73.417 46.289 Z 
        M 72.706 36.684 
        C 72.706 38.398 71.768 39.788 70.61 39.788 
        C 69.453 39.788 68.514 38.398 68.514 36.684 
        C 68.514 34.97 69.452 33.58 70.61 33.58 
        C 71.768 33.58 72.706 34.97 72.706 36.684 Z 
        M 55.539 36.684 
        C 55.539 38.398 56.477 39.788 57.635 39.788 
        C 58.792 39.788 59.731 38.398 59.731 36.684 
        C 59.731 34.97 58.793 33.58 57.635 33.58 
        C 56.477 33.58 55.539 34.97 55.539 36.684 Z" 
        style="stroke-width: 1;"/>
        <path 
        fill="#292F33" 
        d="M 80.89 32.287 
        C 80.719 32.121 79.623 32.561 78.514 31.996 
        C 76.226 30.83 70.444 29.705 66.68 32.372 
        C 66.277 32.657 64.593 32.705 64.122 32.685 
        C 63.651 32.706 61.967 32.658 61.564 32.372 
        C 57.801 29.705 52.019 30.83 49.731 31.996 
        C 48.622 32.561 47.526 32.121 47.355 32.287 
        C 47.108 32.526 47.108 33.483 47.356 33.723 
        C 47.602 33.962 48.833 34.238 49.078 34.955 
        C 49.325 35.673 49.327 39.913 51.291 41.379 
        C 53.13 42.751 57.42 43.164 60.139 41.617 
        C 62.511 40.268 62.428 37.428 62.863 35.736 
        C 63.018 35.133 63.455 34.829 64.123 34.829 
        C 64.791 34.829 65.228 35.133 65.383 35.736 
        C 65.818 37.427 65.734 40.268 68.107 41.617 
        C 70.826 43.163 75.116 42.75 76.954 41.379 
        C 78.919 39.914 78.921 35.673 79.167 34.955 
        C 79.412 34.238 80.643 33.961 80.889 33.723 
        C 81.137 33.483 81.138 32.526 80.89 32.287 Z 
        M 60.696 35.937 
        C 60.619 37.042 60.422 39.164 59.099 39.917 
        C 58.288 40.379 57.231 40.66 56.125 40.66 
        L 56.124 40.66 
        C 54.899 40.66 53.201 40.313 52.537 39.818 
        C 51.707 39.199 51.391 36.651 51.272 35.698 
        C 51.196 35.091 50.992 33.608 51.66 33.38 
        C 52.72 33.019 54.199 32.737 55.712 32.737 
        C 56.405 32.737 58.733 32.78 59.867 33.478 
        C 60.872 34.095 60.739 35.329 60.696 35.937 Z 
        M 76.974 35.684 
        C 76.855 36.638 76.539 39.199 75.709 39.818 
        C 75.045 40.313 73.347 40.66 72.122 40.66 
        L 72.121 40.66 
        C 71.014 40.66 69.958 40.379 69.146 39.917 
        C 67.823 39.165 67.626 37.056 67.549 35.951 
        C 67.507 35.343 67.373 34.1 68.378 33.483 
        C 69.513 32.785 71.84 32.737 72.533 32.737 
        C 74.046 32.737 75.524 33.014 76.585 33.375 
        C 77.253 33.603 77.05 35.077 76.974 35.684 Z" 
        style="stroke-width: 1;"/>
        <animateTransform 
        type="rotate" 
        additive="sum" 
        attributeName="transform" 
        values="0;360" 
        dur="2s" 
        repeatCount="indefinite" 
        keyTimes="0; 1" 
        calcMode="spline" 
        keySplines="0.6 0 0.4 1"/>
    </g>
</svg>