<?xml version="1.0" encoding="utf-8"?><!-- Uploaded to: SVG Repo, www.svgrepo.com, Generator: SVG Repo Mixer Tools -->
<svg width="800px" height="800px" viewBox="0 0 24 24" fill="none" xmlns="http://www.w3.org/2000/svg">
<path d="M11.6915 10.526C11.6915 10.1118 11.3557 9.776 10.9415 9.776C10.5272 9.776 10.1915 10.1118 10.1915 10.526H11.6915ZM10.9415 12.895H10.1915C10.1915 13.3092 10.5272 13.645 10.9415 13.645V12.895ZM13.2171 13.645C13.6313 13.645 13.9671 13.3092 13.9671 12.895C13.9671 12.4808 13.6313 12.145 13.2171 12.145V13.645ZM16.9341 19.428C17.1704 19.7681 17.6378 19.8523 17.978 19.6159C18.3181 19.3796 18.4023 18.9122 18.1659 18.572L16.9341 19.428ZM16.0814 15.572C15.845 15.2319 15.3776 15.1477 15.0375 15.3841C14.6973 15.6204 14.6132 16.0878 14.8495 16.428L16.0814 15.572ZM16.5447 4.25301C16.1321 4.21591 15.7676 4.52027 15.7305 4.93282C15.6934 5.34537 15.9978 5.70988 16.4103 5.74699L16.5447 4.25301ZM17.7889 7.02453C17.8681 7.43109 18.262 7.69641 18.6685 7.61714C19.0751 7.53787 19.3404 7.14403 19.2611 6.73747L17.7889 7.02453ZM7.93357 16L8.47787 15.484L8.47655 15.4826L7.93357 16ZM6.3921 12.105L7.14213 12.107L7.14208 12.0996L6.3921 12.105ZM11.7 6.579L11.7059 5.82893L11.6941 5.82902L11.7 6.579ZM17.0079 12.105L16.2578 12.0996L16.2579 12.1105L17.0079 12.105ZM11.7 17.632L11.7 18.382L11.7059 18.382L11.7 17.632ZM8.54958 16.4278C8.78586 16.0876 8.70162 15.6203 8.36141 15.384C8.0212 15.1477 7.55385 15.232 7.31757 15.5722L8.54958 16.4278ZM5.234 18.5722C4.99771 18.9124 5.08196 19.3797 5.42217 19.616C5.76238 19.8523 6.22972 19.768 6.466 19.4278L5.234 18.5722ZM6.98968 5.74699C7.40223 5.70988 7.70659 5.34537 7.66949 4.93282C7.63238 4.52027 7.26787 4.21591 6.85532 4.25301L6.98968 5.74699ZM4.13886 6.73747C4.05959 7.14403 4.32491 7.53787 4.73147 7.61714C5.13803 7.69641 5.53187 7.43109 5.61114 7.02453L4.13886 6.73747ZM10.1915 10.526V12.895H11.6915V10.526H10.1915ZM10.9415 13.645H13.2171V12.145H10.9415V13.645ZM18.1659 18.572L16.0814 15.572L14.8495 16.428L16.9341 19.428L18.1659 18.572ZM16.4103 5.74699C17.0807 5.80727 17.6509 6.31719 17.7889 7.02453L19.2611 6.73747C18.9999 5.39737 17.9023 4.37511 16.5447 4.25301L16.4103 5.74699ZM8.47655 15.4826C7.61994 14.5836 7.13872 13.3717 7.1421 12.107L5.6421 12.103C5.63771 13.7491 6.26361 15.3346 7.3906 16.5174L8.47655 15.4826ZM7.14208 12.0996C7.12329 9.46656 9.18428 7.34871 11.7059 7.32898L11.6941 5.82902C8.30901 5.85551 5.61767 8.68525 5.64212 12.1104L7.14208 12.0996ZM11.6941 7.32898C14.2157 7.34871 16.2767 9.46656 16.2579 12.0996L17.7579 12.1104C17.7823 8.68525 15.091 5.85551 11.7059 5.82902L11.6941 7.32898ZM16.2579 12.1105C16.2772 14.7439 14.2161 16.8623 11.6941 16.882L11.7059 18.382C15.0914 18.3555 17.7829 15.5251 17.7579 12.0995L16.2579 12.1105ZM11.7 16.882C10.4901 16.882 9.32745 16.3802 8.47787 15.484L7.38928 16.516C8.51786 17.7065 10.0722 18.382 11.7 18.382L11.7 16.882ZM7.31757 15.5722L5.234 18.5722L6.466 19.4278L8.54958 16.4278L7.31757 15.5722ZM6.85532 4.25301C5.49767 4.37511 4.40015 5.39737 4.13886 6.73747L5.61114 7.02453C5.74905 6.31719 6.31934 5.80727 6.98968 5.74699L6.85532 4.25301Z" fill="#ffffff"/>
</svg>