<svg xmlns="http://www.w3.org/2000/svg" viewBox="0 0 448 512" width="32" height="32" preserveAspectRatio="xMinYMid">
    <!--!Font Awesome Free 6.7.2 by @fontawesome - https://fontawesome.com License - https://fontawesome.com/license/free Copyright 2025 Fonticons, Inc.-->
    <path
        d="M301.1 34.8
        C312.6 40 320 51.4 320 64l0 384
        c0 12.6-7.4 24-18.9 29.2
        s-25 3.1-34.4-5.3L131.8 352 64 352
        c-35.3 0-64-28.7-64-64l0-64
        c0-35.3 28.7-64 64-64l67.8 0
        L266.7 40.1
        c9.4-8.4 22.9-10.4 34.4-5.3
        zM412.6 181.5
        C434.1 199.1 448 225.9 448 256
        s-13.9 56.9-35.4 74.5
        c-10.3 8.4-25.4 6.8-33.8-3.5
        s-6.8-25.4 3.5-33.8
        C393.1 284.4 400 271 400 256
        s-6.9-28.4-17.7-37.3
        c-10.3-8.4-11.8-23.5-3.5-33.8
        s23.5-11.8 33.8-3.5z"
        fill="#fff" />
</svg>